<svg width="680" height="400" viewBox="0 0 680 400" fill="none" xmlns="http://www.w3.org/2000/svg">
<g clip-path="url(#clip0)">
<path opacity="0.1" d="M638 279.929C638.008 290.803 636.638 301.626 633.928 312.091C631.309 322.179 627.457 331.837 622.474 340.804C622.474 373.29 602.371 401.367 573.192 414.725C560.999 420.251 547.919 423.072 534.716 423.025H87.087C63.1622 423.025 40.9909 415.983 22.808 403.987C17.6042 400.57 12.6677 396.69 8.0489 392.386C-12.1609 373.439 -24.691 347.255 -24.691 318.335C-36.0333 299.282 -42.0476 277.04 -42 254.322C-42 206.753 -16.2088 165.85 20.7395 147.791C25.6458 145.394 30.7155 143.417 35.9028 141.877C37.7375 141.332 39.592 140.844 41.4664 140.412C46.463 139.251 51.5311 138.492 56.6297 138.142C58.4723 138.017 60.3249 137.945 62.1874 137.928H63.2097C65.2664 137.928 67.3052 138.006 69.3321 138.136L69.9979 136.903C70.8142 135.416 71.6503 133.944 72.5063 132.488C74.0517 129.833 75.6725 127.218 77.3685 124.642C79.1438 121.922 80.9963 119.247 82.9262 116.614L83.4195 115.966C84.5132 114.478 85.6307 113.009 86.772 111.556C90.3384 107.021 94.103 102.623 98.0657 98.3606C140.928 52.5293 208.078 23.0255 283.568 23.0255C342.307 23.0255 396 40.8899 437.127 70.4066C452.707 60.7881 470.307 55.7411 488.21 55.7585C546.307 55.7585 593.42 107.873 593.42 172.159C593.411 176.226 593.213 180.291 592.825 184.336C606.83 195.151 618.244 209.481 626.107 226.118C633.969 242.755 638.048 261.211 638 279.929Z" fill="#9893DA"/>
<path opacity="0.2" d="M98.0776 98.2802V111.466H86.7839C90.3226 106.939 94.0872 102.544 98.0776 98.2802Z" fill="#9893DA"/>
<path opacity="0.2" d="M118.805 94.9368H103.641V111.466H118.805V94.9368Z" fill="#9893DA"/>
<path opacity="0.2" d="M139.526 94.9368H124.362V111.466H139.526V94.9368Z" fill="#9893DA"/>
<path opacity="0.2" d="M160.252 94.9368H145.089V111.466H160.252V94.9368Z" fill="#9893DA"/>
<path opacity="0.2" d="M180.973 94.9368H165.81V111.466H180.973V94.9368Z" fill="#9893DA"/>
<path opacity="0.2" d="M201.7 94.9368H186.537V111.466H201.7V94.9368Z" fill="#9893DA"/>
<path d="M222.427 94.9368H207.264V111.466H222.427V94.9368Z" fill="#9893DA"/>
<path opacity="0.2" d="M243.148 94.9368H227.985V111.466H243.148V94.9368Z" fill="#9893DA"/>
<path opacity="0.2" d="M263.875 94.9368H248.712V111.466H263.875V94.9368Z" fill="#9893DA"/>
<path opacity="0.2" d="M284.596 94.9368H269.433V111.466H284.596V94.9368Z" fill="#9893DA"/>
<path d="M305.323 94.9368H290.16V111.466H305.323V94.9368Z" fill="#9893DA"/>
<path opacity="0.2" d="M326.05 94.9368H310.887V111.466H326.05V94.9368Z" fill="#9893DA"/>
<path opacity="0.2" d="M346.771 94.9368H331.608V111.466H346.771V94.9368Z" fill="#9893DA"/>
<path opacity="0.2" d="M367.498 94.9368H352.335V111.466H367.498V94.9368Z" fill="#9893DA"/>
<path opacity="0.2" d="M388.225 94.9368H373.062V111.466H388.225V94.9368Z" fill="#9893DA"/>
<path opacity="0.2" d="M408.946 94.9368H393.782V111.466H408.946V94.9368Z" fill="#9893DA"/>
<path opacity="0.2" d="M429.673 94.9368H414.509V111.466H429.673V94.9368Z" fill="#9893DA"/>
<path d="M450.394 94.9368H435.23V111.466H450.394V94.9368Z" fill="#9893DA"/>
<path d="M471.121 94.9368H455.957V111.466H471.121V94.9368Z" fill="#9893DA"/>
<path opacity="0.2" d="M491.848 94.9368H476.684V111.466H491.848V94.9368Z" fill="#9893DA"/>
<path opacity="0.2" d="M512.568 94.9368H497.405V111.466H512.568V94.9368Z" fill="#9893DA"/>
<path d="M533.295 94.9368H518.132V111.466H533.295V94.9368Z" fill="#9893DA"/>
<path d="M554.016 94.9368H538.853V111.466H554.016V94.9368Z" fill="#9893DA"/>
<path d="M77.3566 124.562V132.402H72.4944C74.0399 129.732 75.6606 127.119 77.3566 124.562Z" fill="#9893DA"/>
<path opacity="0.2" d="M98.0776 115.872H82.9143V132.402H98.0776V115.872Z" fill="#9893DA"/>
<path d="M118.805 115.872H103.641V132.402H118.805V115.872Z" fill="#9893DA"/>
<path opacity="0.2" d="M139.526 115.872H124.362V132.402H139.526V115.872Z" fill="#9893DA"/>
<path opacity="0.7" d="M160.252 115.872H145.089V132.402H160.252V115.872Z" fill="#9893DA"/>
<path opacity="0.2" d="M180.973 115.872H165.81V132.402H180.973V115.872Z" fill="#9893DA"/>
<path opacity="0.4" d="M201.7 115.872H186.537V132.402H201.7V115.872Z" fill="#9893DA"/>
<path d="M222.427 115.872H207.264V132.402H222.427V115.872Z" fill="#9893DA"/>
<path opacity="0.4" d="M243.148 115.872H227.985V132.402H243.148V115.872Z" fill="#9893DA"/>
<path opacity="0.2" d="M263.875 115.872H248.712V132.402H263.875V115.872Z" fill="#9893DA"/>
<path opacity="0.4" d="M284.596 115.872H269.433V132.402H284.596V115.872Z" fill="#9893DA"/>
<path d="M305.323 115.872H290.16V132.402H305.323V115.872Z" fill="#9893DA"/>
<path opacity="0.4" d="M326.05 115.872H310.887V132.402H326.05V115.872Z" fill="#9893DA"/>
<path opacity="0.4" d="M346.771 115.872H331.608V132.402H346.771V115.872Z" fill="#9893DA"/>
<path opacity="0.2" d="M367.498 115.872H352.335V132.402H367.498V115.872Z" fill="#9893DA"/>
<path opacity="0.4" d="M388.225 115.872H373.062V132.402H388.225V115.872Z" fill="#9893DA"/>
<path opacity="0.4" d="M408.946 115.872H393.782V132.402H408.946V115.872Z" fill="#9893DA"/>
<path opacity="0.2" d="M429.673 115.872H414.509V132.402H429.673V115.872Z" fill="#9893DA"/>
<path opacity="0.2" d="M450.394 115.872H435.23V132.402H450.394V115.872Z" fill="#9893DA"/>
<path opacity="0.4" d="M471.121 115.872H455.957V132.402H471.121V115.872Z" fill="#9893DA"/>
<path opacity="0.2" d="M491.848 115.872H476.684V132.402H491.848V115.872Z" fill="#9893DA"/>
<path d="M512.568 115.872H497.405V132.402H512.568V115.872Z" fill="#9893DA"/>
<path d="M533.295 115.872H518.132V132.402H533.295V115.872Z" fill="#9893DA"/>
<path d="M554.016 115.872H538.853V132.402H554.016V115.872Z" fill="#9893DA"/>
<path opacity="0.2" d="M35.9028 141.791V153.344H20.7395V147.7C25.6459 145.305 30.7156 143.329 35.9028 141.791Z" fill="#9893DA"/>
<path opacity="0.2" d="M56.6297 138.059V153.344H41.4664V140.327L56.6297 138.059Z" fill="#9893DA"/>
<path d="M77.3507 136.815H62.1874V153.344H77.3507V136.815Z" fill="#9893DA"/>
<path opacity="0.7" d="M98.0776 136.815H82.9143V153.344H98.0776V136.815Z" fill="#9893DA"/>
<path d="M118.805 136.815H103.641V153.344H118.805V136.815Z" fill="#9893DA"/>
<path opacity="0.7" d="M139.526 136.815H124.362V153.344H139.526V136.815Z" fill="#9893DA"/>
<path opacity="0.7" d="M160.252 136.815H145.089V153.344H160.252V136.815Z" fill="#9893DA"/>
<path opacity="0.2" d="M180.973 136.815H165.81V153.344H180.973V136.815Z" fill="#9893DA"/>
<path opacity="0.4" d="M201.7 136.815H186.537V153.344H201.7V136.815Z" fill="#9893DA"/>
<path opacity="0.4" d="M222.427 136.815H207.264V153.344H222.427V136.815Z" fill="#9893DA"/>
<path d="M243.148 136.815H227.985V153.344H243.148V136.815Z" fill="#9893DA"/>
<path opacity="0.2" d="M263.875 136.815H248.712V153.344H263.875V136.815Z" fill="#9893DA"/>
<path opacity="0.4" d="M284.596 136.815H269.433V153.344H284.596V136.815Z" fill="#9893DA"/>
<path d="M305.323 136.815H290.16V153.344H305.323V136.815Z" fill="#9893DA"/>
<path opacity="0.2" d="M326.05 136.815H310.887V153.344H326.05V136.815Z" fill="#9893DA"/>
<path opacity="0.4" d="M346.771 136.815H331.608V153.344H346.771V136.815Z" fill="#9893DA"/>
<path opacity="0.2" d="M367.498 136.815H352.335V153.344H367.498V136.815Z" fill="#9893DA"/>
<path d="M388.225 136.815H373.062V153.344H388.225V136.815Z" fill="#9893DA"/>
<path opacity="0.2" d="M408.946 136.815H393.782V153.344H408.946V136.815Z" fill="#9893DA"/>
<path opacity="0.7" d="M429.673 136.815H414.509V153.344H429.673V136.815Z" fill="#9893DA"/>
<path opacity="0.7" d="M450.394 136.815H435.23V153.344H450.394V136.815Z" fill="#9893DA"/>
<path opacity="0.4" d="M471.121 136.815H455.957V153.344H471.121V136.815Z" fill="#9893DA"/>
<path opacity="0.2" d="M491.848 136.815H476.684V153.344H491.848V136.815Z" fill="#9893DA"/>
<path d="M512.568 136.815H497.405V153.344H512.568V136.815Z" fill="#9893DA"/>
<path d="M533.295 136.815H518.132V153.344H533.295V136.815Z" fill="#9893DA"/>
<path d="M554.016 136.815H538.853V153.344H554.016V136.815Z" fill="#9893DA"/>
<path opacity="0.2" d="M35.9028 157.75H20.7395V174.28H35.9028V157.75Z" fill="#9893DA"/>
<path opacity="0.2" d="M56.6297 157.75H41.4664V174.28H56.6297V157.75Z" fill="#9893DA"/>
<path opacity="0.2" d="M77.3507 157.75H62.1874V174.28H77.3507V157.75Z" fill="#9893DA"/>
<path opacity="0.2" d="M98.0776 157.75H82.9143V174.28H98.0776V157.75Z" fill="#9893DA"/>
<path d="M118.805 157.75H103.641V174.28H118.805V157.75Z" fill="#9893DA"/>
<path opacity="0.7" d="M139.526 157.75H124.362V174.28H139.526V157.75Z" fill="#9893DA"/>
<path opacity="0.7" d="M160.252 157.75H145.089V174.28H160.252V157.75Z" fill="#9893DA"/>
<path opacity="0.2" d="M180.973 157.75H165.81V174.28H180.973V157.75Z" fill="#9893DA"/>
<path opacity="0.2" d="M201.7 157.75H186.537V174.28H201.7V157.75Z" fill="#9893DA"/>
<path opacity="0.4" d="M222.427 157.75H207.264V174.28H222.427V157.75Z" fill="#9893DA"/>
<path opacity="0.4" d="M243.148 157.75H227.985V174.28H243.148V157.75Z" fill="#9893DA"/>
<path d="M263.875 157.75H248.712V174.28H263.875V157.75Z" fill="#9893DA"/>
<path opacity="0.2" d="M284.596 157.75H269.433V174.28H284.596V157.75Z" fill="#9893DA"/>
<path opacity="0.4" d="M305.323 157.75H290.16V174.28H305.323V157.75Z" fill="#9893DA"/>
<path opacity="0.4" d="M326.05 157.75H310.887V174.28H326.05V157.75Z" fill="#9893DA"/>
<path opacity="0.4" d="M346.771 157.75H331.608V174.28H346.771V157.75Z" fill="#9893DA"/>
<path opacity="0.4" d="M367.498 157.75H352.335V174.28H367.498V157.75Z" fill="#9893DA"/>
<path opacity="0.2" d="M388.225 157.75H373.062V174.28H388.225V157.75Z" fill="#9893DA"/>
<path opacity="0.2" d="M408.946 157.75H393.782V174.28H408.946V157.75Z" fill="#9893DA"/>
<path opacity="0.2" d="M429.673 157.75H414.509V174.28H429.673V157.75Z" fill="#9893DA"/>
<path opacity="0.2" d="M450.394 157.75H435.23V174.28H450.394V157.75Z" fill="#9893DA"/>
<path opacity="0.7" d="M471.121 157.75H455.957V174.28H471.121V157.75Z" fill="#9893DA"/>
<path opacity="0.7" d="M491.848 157.75H476.684V174.28H491.848V157.75Z" fill="#9893DA"/>
<path opacity="0.4" d="M512.568 157.75H497.405V174.28H512.568V157.75Z" fill="#9893DA"/>
<path opacity="0.2" d="M533.295 157.75H518.132V174.28H533.295V157.75Z" fill="#9893DA"/>
<path d="M554.016 157.75H538.853V174.28H554.016V157.75Z" fill="#9893DA"/>
<path opacity="0.2" d="M35.9028 178.692H20.7395V195.222H35.9028V178.692Z" fill="#9893DA"/>
<path opacity="0.2" d="M56.6297 178.692H41.4664V195.222H56.6297V178.692Z" fill="#9893DA"/>
<path opacity="0.4" d="M77.3507 178.692H62.1874V195.222H77.3507V178.692Z" fill="#9893DA"/>
<path opacity="0.2" d="M98.0776 178.692H82.9143V195.222H98.0776V178.692Z" fill="#9893DA"/>
<path opacity="0.2" d="M118.805 178.692H103.641V195.222H118.805V178.692Z" fill="#9893DA"/>
<path opacity="0.7" d="M139.526 178.692H124.362V195.222H139.526V178.692Z" fill="#9893DA"/>
<path opacity="0.7" d="M160.252 178.692H145.089V195.222H160.252V178.692Z" fill="#9893DA"/>
<path opacity="0.2" d="M180.973 178.692H165.81V195.222H180.973V178.692Z" fill="#9893DA"/>
<path opacity="0.2" d="M201.7 178.692H186.537V195.222H201.7V178.692Z" fill="#9893DA"/>
<path opacity="0.4" d="M222.427 178.692H207.264V195.222H222.427V178.692Z" fill="#9893DA"/>
<path d="M243.148 178.692H227.985V195.222H243.148V178.692Z" fill="#9893DA"/>
<path opacity="0.2" d="M263.875 178.692H248.712V195.222H263.875V178.692Z" fill="#9893DA"/>
<path d="M284.596 178.692H269.433V195.222H284.596V178.692Z" fill="#9893DA"/>
<path d="M305.323 178.692H290.16V195.222H305.323V178.692Z" fill="#9893DA"/>
<path d="M326.05 178.692H310.887V195.222H326.05V178.692Z" fill="#9893DA"/>
<path opacity="0.2" d="M346.771 178.692H331.608V195.222H346.771V178.692Z" fill="#9893DA"/>
<path d="M367.498 178.692H352.335V195.222H367.498V178.692Z" fill="#9893DA"/>
<path opacity="0.2" d="M388.225 178.692H373.062V195.222H388.225V178.692Z" fill="#9893DA"/>
<path opacity="0.2" d="M408.946 178.692H393.782V195.222H408.946V178.692Z" fill="#9893DA"/>
<path opacity="0.2" d="M429.673 178.692H414.509V195.222H429.673V178.692Z" fill="#9893DA"/>
<path opacity="0.2" d="M450.394 178.692H435.23V195.222H450.394V178.692Z" fill="#9893DA"/>
<path opacity="0.2" d="M471.121 178.692H455.957V195.222H471.121V178.692Z" fill="#9893DA"/>
<path opacity="0.7" d="M491.848 178.692H476.684V195.222H491.848V178.692Z" fill="#9893DA"/>
<path opacity="0.2" d="M512.568 178.692H497.405V195.222H512.568V178.692Z" fill="#9893DA"/>
<path opacity="0.2" d="M533.295 178.692H518.132V195.222H533.295V178.692Z" fill="#9893DA"/>
<path d="M554.016 178.692H538.853V195.222H554.016V178.692Z" fill="#9893DA"/>
<path opacity="0.2" d="M35.9028 199.628H20.7395V216.158H35.9028V199.628Z" fill="#9893DA"/>
<path opacity="0.2" d="M56.6297 199.628H41.4664V216.158H56.6297V199.628Z" fill="#9893DA"/>
<path opacity="0.2" d="M77.3507 199.628H62.1874V216.158H77.3507V199.628Z" fill="#9893DA"/>
<path opacity="0.4" d="M98.0776 199.628H82.9143V216.158H98.0776V199.628Z" fill="#9893DA"/>
<path opacity="0.2" d="M118.805 199.628H103.641V216.158H118.805V199.628Z" fill="#9893DA"/>
<path opacity="0.2" d="M139.526 199.628H124.362V216.158H139.526V199.628Z" fill="#9893DA"/>
<path opacity="0.7" d="M160.252 199.628H145.089V216.158H160.252V199.628Z" fill="#9893DA"/>
<path opacity="0.2" d="M180.973 199.628H165.81V216.158H180.973V199.628Z" fill="#9893DA"/>
<path opacity="0.2" d="M201.7 199.628H186.537V216.158H201.7V199.628Z" fill="#9893DA"/>
<path opacity="0.2" d="M222.427 199.628H207.264V216.158H222.427V199.628Z" fill="#9893DA"/>
<path d="M243.148 199.628H227.985V216.158H243.148V199.628Z" fill="#9893DA"/>
<path opacity="0.2" d="M263.875 199.628H248.712V216.158H263.875V199.628Z" fill="#9893DA"/>
<path d="M284.596 199.628H269.433V216.158H284.596V199.628Z" fill="#9893DA"/>
<path d="M305.323 199.628H290.16V216.158H305.323V199.628Z" fill="#9893DA"/>
<path opacity="0.2" d="M326.05 199.628H310.887V216.158H326.05V199.628Z" fill="#9893DA"/>
<path opacity="0.2" d="M346.771 199.628H331.608V216.158H346.771V199.628Z" fill="#9893DA"/>
<path opacity="0.2" d="M367.498 199.628H352.335V216.158H367.498V199.628Z" fill="#9893DA"/>
<path opacity="0.2" d="M388.225 199.628H373.062V216.158H388.225V199.628Z" fill="#9893DA"/>
<path opacity="0.2" d="M408.946 199.628H393.782V216.158H408.946V199.628Z" fill="#9893DA"/>
<path opacity="0.2" d="M429.673 199.628H414.509V216.158H429.673V199.628Z" fill="#9893DA"/>
<path opacity="0.2" d="M450.394 199.628H435.23V216.158H450.394V199.628Z" fill="#9893DA"/>
<path opacity="0.2" d="M471.121 199.628H455.957V216.158H471.121V199.628Z" fill="#9893DA"/>
<path opacity="0.2" d="M491.848 199.628H476.684V216.158H491.848V199.628Z" fill="#9893DA"/>
<path opacity="0.2" d="M512.568 199.628H497.405V216.158H512.568V199.628Z" fill="#9893DA"/>
<path opacity="0.4" d="M533.295 199.628H518.132V216.158H533.295V199.628Z" fill="#9893DA"/>
<path d="M554.016 199.628H538.853V216.158H554.016V199.628Z" fill="#9893DA"/>
<path opacity="0.7" d="M35.9028 220.57H20.7395V237.1H35.9028V220.57Z" fill="#9893DA"/>
<path opacity="0.7" d="M56.6297 220.57H41.4664V237.1H56.6297V220.57Z" fill="#9893DA"/>
<path opacity="0.7" d="M77.3507 220.57H62.1874V237.1H77.3507V220.57Z" fill="#9893DA"/>
<path opacity="0.7" d="M98.0776 220.57H82.9143V237.1H98.0776V220.57Z" fill="#9893DA"/>
<path opacity="0.7" d="M118.805 220.57H103.641V237.1H118.805V220.57Z" fill="#9893DA"/>
<path opacity="0.2" d="M139.526 220.57H124.362V237.1H139.526V220.57Z" fill="#9893DA"/>
<path opacity="0.2" d="M160.252 220.57H145.089V237.1H160.252V220.57Z" fill="#9893DA"/>
<path opacity="0.2" d="M180.973 220.57H165.81V237.1H180.973V220.57Z" fill="#9893DA"/>
<path opacity="0.2" d="M201.7 220.57H186.537V237.1H201.7V220.57Z" fill="#9893DA"/>
<path opacity="0.2" d="M222.427 220.57H207.264V237.1H222.427V220.57Z" fill="#9893DA"/>
<path opacity="0.2" d="M243.148 220.57H227.985V237.1H243.148V220.57Z" fill="#9893DA"/>
<path d="M263.875 220.57H248.712V237.1H263.875V220.57Z" fill="#9893DA"/>
<path opacity="0.2" d="M284.596 220.57H269.433V237.1H284.596V220.57Z" fill="#9893DA"/>
<path opacity="0.2" d="M305.323 220.57H290.16V237.1H305.323V220.57Z" fill="#9893DA"/>
<path opacity="0.2" d="M326.05 220.57H310.887V237.1H326.05V220.57Z" fill="#9893DA"/>
<path d="M346.771 220.57H331.608V237.1H346.771V220.57Z" fill="#9893DA"/>
<path opacity="0.2" d="M367.498 220.57H352.335V237.1H367.498V220.57Z" fill="#9893DA"/>
<path opacity="0.2" d="M388.225 220.57H373.062V237.1H388.225V220.57Z" fill="#9893DA"/>
<path opacity="0.2" d="M408.946 220.57H393.782V237.1H408.946V220.57Z" fill="#9893DA"/>
<path opacity="0.2" d="M429.673 220.57H414.509V237.1H429.673V220.57Z" fill="#9893DA"/>
<path opacity="0.2" d="M450.394 220.57H435.23V237.1H450.394V220.57Z" fill="#9893DA"/>
<path opacity="0.2" d="M471.121 220.57H455.957V237.1H471.121V220.57Z" fill="#9893DA"/>
<path opacity="0.2" d="M491.848 220.57H476.684V237.1H491.848V220.57Z" fill="#9893DA"/>
<path opacity="0.2" d="M512.568 220.57H497.405V237.1H512.568V220.57Z" fill="#9893DA"/>
<path opacity="0.2" d="M533.295 220.57H518.132V237.1H533.295V220.57Z" fill="#9893DA"/>
<path d="M554.016 220.57H538.853V237.1H554.016V220.57Z" fill="#9893DA"/>
<path d="M394.603 281.381C406.05 281.381 415.33 271.265 415.33 258.787C415.33 246.308 406.05 236.192 394.603 236.192C383.156 236.192 373.876 246.308 373.876 258.787C373.876 271.265 383.156 281.381 394.603 281.381Z" fill="#767D9F"/>
<path d="M393.527 230.043C395.595 239.884 397.351 249.798 398.793 259.785C399.227 262.752 399.614 265.882 398.627 268.688C397.801 271.027 396.119 272.854 394.799 274.902C393.479 276.949 392.481 279.574 393.283 281.919C394.086 284.265 396.428 285.548 398.663 286.209C405.058 288.088 411.876 286.721 418.242 284.686C421.125 283.877 423.888 282.629 426.451 280.98C429.15 279.114 431.361 276.522 433.394 273.852C442.672 261.586 448.747 246.864 454.465 232.233C450.791 232.598 447.09 232.004 443.668 230.501C440.246 228.998 437.201 226.629 434.785 223.59C432.443 220.59 430.725 216.41 432.044 212.743C428.175 215.056 423.58 215.211 419.413 216.793C416.829 217.868 414.342 219.202 411.983 220.777C409.138 222.57 406.309 224.397 403.495 226.259C400.279 228.372 397.266 230.251 393.527 230.043Z" fill="#AE6E79"/>
<path d="M436.877 247.007C433.245 254.711 428.52 262.117 421.773 266.705C415.027 271.293 405.944 272.537 399.186 268.001C395.857 265.785 393.337 262.416 390.43 259.577C387.523 256.739 383.892 254.31 379.986 254.679C375.683 255.087 372.313 258.748 369.43 262.254C365.055 267.58 360.829 273.133 357.732 279.437C351.788 291.554 350.379 305.719 350.641 319.456C350.902 333.192 352.727 346.858 352.769 360.595C352.828 377.494 350.201 394.256 347.544 410.903C371.974 407.624 396.434 414.79 420.917 417.505C436.586 419.261 452.373 419.222 468.125 419.177C470.895 419.177 473.843 419.099 476.149 417.428C477.559 416.306 478.699 414.83 479.472 413.125C481.648 408.751 482.521 403.762 483.128 398.831C484.667 386.377 484.715 373.768 484.756 361.197C484.863 330.743 484.964 300.179 481.416 269.964C480.542 262.532 479.424 255.061 476.809 248.109C474.194 241.156 469.926 234.761 463.958 231.035C460.124 228.637 451.238 224.464 446.72 226.881C441.65 229.577 439.308 241.849 436.877 247.007Z" fill="#767D9F"/>
<path d="M438.684 333.005C437.763 314.214 434.012 294.159 441.995 277.481C443.956 273.386 436.919 268.273 439.094 264.308C441.749 259.473 443.762 254.252 445.074 248.802C445.526 246.929 445.888 244.946 445.46 243.067C444.67 239.64 441.561 237.599 438.922 235.512C436.009 233.205 434.511 226.175 433.572 222.371C432.633 218.568 441.044 223.149 444.426 221.795C449.122 219.922 455.09 221.101 459.773 223C462.389 224.05 465.23 224.14 468.018 224.218C473.433 224.374 478.866 224.523 484.239 223.797C486.652 223.467 489.072 222.968 491.497 223.117C497.685 223.499 503.064 228.112 506.726 233.568C510.387 239.024 512.717 245.381 515.719 251.29C518.221 256.215 521.205 260.867 523.339 265.992C525.229 270.528 526.424 275.401 527.607 280.247L530.656 292.682C531.19 294.461 531.443 296.325 531.405 298.196C531.251 300.185 530.442 302.038 529.622 303.807C526.52 310.364 522.801 316.551 518.524 322.268C512.111 330.84 504.324 338.571 500.514 348.834C499.028 352.832 498.202 357.083 497.447 361.32C494.403 378.269 492.24 395.392 490.968 412.607C484.022 409.103 476.742 406.45 469.26 404.695C465.531 403.825 461.76 403.176 457.966 402.751C454.644 402.375 450.358 403.088 447.196 402.103C441.906 400.464 441.323 390.712 440.521 385.606C439.237 377.474 438.981 369.2 438.934 360.984C438.874 351.64 439.142 342.316 438.684 333.005Z" fill="#4C4981"/>
<path d="M322.507 297.866C325.01 313.417 327.768 329.013 333.207 343.625C333.07 343.767 332.933 343.897 332.796 344.026C332.315 344.474 331.816 344.895 331.293 345.322C330.074 346.255 328.737 347.046 327.726 348.264C327.344 348.73 327.041 349.268 326.835 349.852C326.648 350.307 326.551 350.801 326.551 351.3C326.551 351.799 326.648 352.292 326.835 352.748C323.999 354.115 320.706 353.694 317.526 353.564C314.786 353.454 312.129 353.564 309.93 355.204C306.874 357.498 305.953 361.904 305.46 365.908C305.277 367.368 305.121 368.83 304.99 370.295C304.863 371.656 304.76 373.021 304.681 374.39C304.412 378.92 304.374 383.463 304.568 387.997C304.6 388.827 304.641 389.656 304.693 390.485C294.98 390.233 286.13 384.712 277.754 379.347C275.84 378.122 273.867 376.833 272.625 374.811C271.48 372.826 270.995 370.472 271.252 368.144C271.252 367.813 271.305 367.496 271.347 367.159C271.613 365.236 272.069 363.35 272.708 361.534C275.328 353.8 279.191 346.637 284.115 340.378C286.243 337.67 288.638 335.02 289.631 331.618C290.065 330.134 290.225 328.56 290.665 327.082C292.638 320.68 299.759 317.654 302.196 311.44C302.791 309.957 303.064 308.33 303.801 306.905C304.465 305.72 305.321 304.677 306.328 303.827C306.761 303.432 307.213 303.049 307.659 302.667C311.836 299.099 315.86 295.33 319.731 291.36C320.453 290.621 321.166 289.874 321.871 289.118C321.777 292.051 321.99 294.986 322.507 297.866Z" fill="#4C4981"/>
<path d="M382.406 251.873C381.55 252.858 380.622 253.785 379.713 254.705L379.469 254.945L378.506 255.916C376.759 257.561 375.246 259.481 374.019 261.612L373.917 261.794C370.886 267.709 372.009 274.992 372.853 281.712C373.9 290.085 374.371 298.532 374.262 306.982C374.108 318.646 372.848 330.231 372.824 341.882C372.824 344.525 372.877 347.163 372.984 349.806C373.157 354.102 373.454 358.392 373.81 362.681C374.197 367.385 374.66 372.083 375.094 376.781C375.439 380.416 375.766 384.044 376.039 387.673C376.176 389.552 376.307 391.425 376.414 393.304C376.539 395.507 376.64 397.716 376.699 399.92C376.741 401.319 376.765 402.712 376.765 404.112C376.765 404.909 376.765 405.699 376.765 406.49C376.765 408.006 376.727 409.518 376.652 411.026C376.572 412.965 376.452 414.909 376.289 416.857C376.105 418.976 375.778 421.289 374.411 422.78C374.328 422.87 374.238 422.955 374.149 423.039L372.223 422.78C358.947 421.047 345.544 420.786 332.22 422.002C332.511 419.812 332.779 417.628 333.04 415.432C333.159 414.395 333.278 413.352 333.391 412.309C333.522 411.116 333.646 409.924 333.765 408.732C333.902 407.436 334.027 406.14 334.146 404.844C334.455 401.505 334.726 398.164 334.96 394.82C335.305 389.943 335.566 385.057 335.745 380.163C335.832 377.826 335.899 375.487 335.947 373.146C336.014 370.243 336.046 367.338 336.042 364.431C336.042 361.606 336.02 358.776 335.977 355.942C335.977 355.009 335.941 354.076 335.87 353.15C335.818 352.315 335.713 351.486 335.555 350.668C335.113 348.782 334.516 346.943 333.771 345.173C333.641 344.836 333.516 344.525 333.391 344.169C333.32 343.994 333.254 343.813 333.189 343.638C336.613 340.314 339.05 335.862 341.392 331.482C345.19 324.425 349.077 317.058 349.713 308.907C350.349 300.755 346.634 291.6 339.489 289.112C337.546 288.464 335.489 288.282 333.486 287.9C331.596 287.537 327.655 286.714 325.467 285.237C324.279 286.567 323.09 287.874 321.901 289.157C321.973 287.199 322.412 285.279 323.191 283.513L324.035 283.559C323.966 283.351 323.934 283.131 323.94 282.911C323.94 282.217 324.38 281.433 325.319 280.565C328.119 277.973 332.523 277.396 334.288 273.891C335.026 272.433 335.15 270.697 335.745 269.167C337.451 264.807 342.349 263.2 345.297 259.714C348.245 256.228 348.982 251.29 351.366 247.402C353.146 244.563 355.616 242.32 358.499 240.923C358.736 240.8 358.98 240.676 359.224 240.566C364.157 238.266 370.018 237.741 375.13 237.754C377.115 237.754 382.263 237.819 384.783 238.914C385.192 239.073 385.566 239.322 385.883 239.646C388.57 242.834 384.391 249.566 382.406 251.873Z" fill="#4C4981"/>
<path d="M323.393 283.06C327.985 281.553 332.805 281.056 337.575 281.597C342.344 282.139 346.967 283.709 351.176 286.215C355.455 288.807 359.295 292.423 361.649 297.088C365.186 304.086 365.031 312.522 364.782 320.512C364.657 324.51 364.496 328.65 362.879 332.24C361.007 336.393 357.476 339.244 353.874 341.577C351.618 343.146 349.145 344.312 346.551 345.031C342.557 345.977 338.408 345.173 334.384 344.383C330.009 343.501 325.313 342.439 322.276 338.888C320.492 336.827 319.518 334.151 318.555 331.534C317.172 327.754 315.785 323.978 314.394 320.207C311.986 313.656 311.172 308.207 314.352 301.825C315.797 298.915 317.562 296.194 318.988 293.265C319.702 291.775 322.258 283.442 323.393 283.06Z" fill="#4C4981"/>
<path d="M573.21 395.073V414.447C561.017 419.969 547.937 422.788 534.734 422.741H374.429C374.346 422.832 374.256 422.916 374.167 423L372.241 422.741H87.0871C63.1622 422.741 40.9909 415.704 22.808 403.717V374.137L159.949 356.882H160.056L239.921 364.256L260.588 366.2L271.323 367.191L293.542 369.245L304.972 370.301L321.616 371.843L323.958 372.057L335.953 373.165L352.228 374.623L375.112 376.735L413.261 380.267L440.099 382.749L484.168 386.824L492.549 387.595L493.452 387.68L494.237 387.751L505.305 388.775L517.455 389.902L518.863 390.032L573.21 395.073Z" fill="#504F60"/>
<path d="M412.126 394.36L240.259 362.383L233.596 399.116L312.379 409.399L336.636 412.71L403.364 398.384L412.126 394.36Z" fill="#9C9CA1"/>
<path d="M323.161 410.87L409.267 393.226C409.698 393.136 410.141 393.151 410.566 393.271C410.991 393.39 411.386 393.61 411.724 393.915C412.061 394.221 412.332 394.604 412.518 395.037C412.704 395.47 412.799 395.942 412.798 396.421C412.799 397.179 412.557 397.914 412.113 398.498C411.669 399.082 411.051 399.477 410.366 399.615L326.276 416.78L323.161 410.87Z" fill="#9C9CA1"/>
<path d="M360.514 355.385C363.194 355.113 365.911 354.653 368.324 353.357C371.296 351.744 373.608 348.964 376.361 346.916C382.412 342.381 390.507 341.771 397.444 344.376C404.381 346.981 410.17 352.56 414.224 359.221C416.917 363.66 418.938 369.323 417.036 374.221C416.383 375.719 415.56 377.121 414.587 378.394L409.629 385.457C408.688 386.942 407.555 388.271 406.265 389.403C404.411 390.874 402.104 391.477 399.834 391.84C393.8 392.799 387.66 392.254 381.579 392.695C371.136 393.453 360.936 397.12 350.468 396.997C344.453 396.926 338.515 395.604 332.636 394.282L306.619 388.451C302.09 387.44 296.972 385.963 294.838 381.485C293.881 379.47 293.703 377.137 293.59 374.869C293.28 368.623 293.59 361.677 297.56 357.174C301.293 352.949 307.195 351.614 311.654 348.491C317.11 344.661 318.911 345.899 324.665 348.776C335.89 354.318 348.241 356.595 360.514 355.385Z" fill="#AE6E79"/>
<path opacity="0.05" d="M360.514 355.385C363.194 355.113 365.911 354.653 368.324 353.357C371.296 351.744 373.608 348.964 376.361 346.916C382.412 342.381 390.507 341.771 397.444 344.376C404.381 346.981 410.17 352.56 414.224 359.221C416.917 363.66 418.938 369.323 417.036 374.221C416.383 375.719 415.56 377.121 414.587 378.394L409.629 385.457C408.688 386.942 407.555 388.271 406.265 389.403C404.411 390.874 402.104 391.477 399.834 391.84C393.8 392.799 387.66 392.254 381.579 392.695C371.136 393.453 360.936 397.12 350.468 396.997C344.453 396.926 338.515 395.604 332.636 394.282L306.619 388.451C302.09 387.44 296.972 385.963 294.838 381.485C293.881 379.47 293.703 377.137 293.59 374.869C293.28 368.623 293.59 361.677 297.56 357.174C301.293 352.949 307.195 351.614 311.654 348.491C317.11 344.661 318.911 345.899 324.665 348.776C335.89 354.318 348.241 356.595 360.514 355.385Z" fill="black"/>
<path d="M464.992 346.502C457.693 349.579 450.352 352.67 442.708 354.504C429.893 357.582 416.483 357.096 403.769 360.614C397.052 362.48 390.377 365.487 383.476 364.878C380.391 364.606 377.413 363.582 374.411 362.804C357.548 358.269 338.378 359.739 324.683 371.403C319.999 375.388 316.165 380.358 312.688 385.658C311.944 386.803 311.441 388.113 311.215 389.494C310.989 390.875 311.046 392.294 311.382 393.648C311.718 395.003 312.324 396.26 313.157 397.329C313.99 398.399 315.029 399.255 316.201 399.835C321.527 402.505 327.232 404.164 333.07 404.74C340.875 405.492 348.715 404.287 356.478 403.082C367.997 401.3 379.523 399.511 391.013 397.509C395.138 396.79 399.263 396.045 403.412 395.475C433.269 391.36 463.667 396.362 493.601 392.928C496.627 392.578 499.706 392.125 502.458 390.719C509.424 387.155 512.872 377.759 511.433 369.504C509.995 361.249 504.443 354.387 497.762 350.176C492.163 346.631 486.123 345.199 479.888 343.696C474.099 342.225 470.568 344.169 464.992 346.502Z" fill="#AE6E79"/>
<path opacity="0.1" d="M529.027 297.153C532.32 301.857 533.022 308.168 532.665 314.058C532.309 319.948 531.025 325.773 530.834 331.689C530.573 339.802 532.368 347.888 532.065 355.975C531.851 361.631 530.621 367.178 529.164 372.608C527.446 379.016 524.962 385.904 519.535 388.982C512.331 393.071 497.221 390.77 489.642 393.971C490.332 389.287 496.942 382.502 497.631 377.818C498.107 374.578 498.588 371.247 498.077 368.001C497.423 363.861 495.194 360.187 492.549 357.128C488.34 352.262 482.848 348.601 476.815 347.409C470.782 346.216 456.011 347.195 451.184 351.348C450.59 347.059 461.646 342.925 465.533 341.998C467.471 341.525 469.694 341.791 471.245 340.45C474.217 337.91 472.06 332.849 472.202 328.786C472.315 325.546 474.051 322.579 474.402 319.339C474.996 314.155 471.893 308.874 473.112 303.788C473.564 301.909 474.568 300.256 475.264 298.468C477.38 292.993 476.452 286.747 475.323 280.928C474.622 277.273 473.938 273.152 475.804 270.036C477.534 267.126 482.444 277.487 485.588 277.008C495.973 275.42 505.37 267.029 513.757 273.897C518.031 277.396 518.59 281.025 520.296 286.021C521.954 290.777 526.252 293.213 529.027 297.153Z" fill="black"/>
<path d="M530.811 297.153C534.104 301.857 534.805 308.168 534.449 314.058C534.092 319.948 532.808 325.773 532.618 331.689C532.356 339.802 534.151 347.888 533.848 355.975C533.634 361.631 532.404 367.178 530.948 372.608C529.23 379.016 526.745 385.904 521.318 388.982C514.114 393.071 499.004 390.77 491.425 393.971C492.115 389.287 498.725 382.502 499.414 377.818C499.89 374.578 500.371 371.247 499.86 368.001C499.206 363.861 496.977 360.187 494.332 357.128C490.124 352.262 484.631 348.601 478.598 347.409C472.565 346.216 457.794 347.195 452.968 351.348C452.373 347.059 463.429 342.925 467.316 341.998C469.254 341.525 471.477 341.791 473.029 340.45C476.001 337.91 473.843 332.849 473.986 328.786C474.099 325.546 475.834 322.579 476.185 319.339C476.779 314.155 473.677 308.874 474.895 303.788C475.347 301.909 476.351 300.257 477.047 298.468C479.163 292.993 478.236 286.747 477.106 280.928C476.405 277.273 475.721 273.152 477.588 270.036C479.317 267.126 482.7 266.025 485.844 265.539C496.372 263.986 507.039 266.987 515.564 273.897C519.838 277.396 520.397 281.025 522.103 286.021C523.737 290.777 528.035 293.213 530.811 297.153Z" fill="#4C4981"/>
<path d="M137.51 266.452L169.828 396.654C170.225 398.249 171.058 399.675 172.216 400.741C173.375 401.807 174.804 402.463 176.313 402.622L321.776 417.855C322.962 417.98 324.157 417.793 325.263 417.31C326.369 416.827 327.352 416.063 328.131 415.081C328.91 414.098 329.461 412.927 329.739 411.665C330.018 410.402 330.014 409.085 329.729 407.825L294.338 250.772C293.917 248.905 292.903 247.261 291.475 246.133C290.047 245.005 288.298 244.465 286.54 244.61L144.126 256.221C143.033 256.314 141.972 256.668 141.018 257.259C140.065 257.85 139.243 258.664 138.611 259.641C137.979 260.618 137.553 261.735 137.363 262.912C137.172 264.09 137.223 265.299 137.51 266.452Z" fill="#9C9CA1"/>
<path d="M425.863 291.859C434.693 291.859 441.852 283.954 441.852 274.202C441.852 264.45 434.693 256.545 425.863 256.545C417.032 256.545 409.873 264.45 409.873 274.202C409.873 283.954 417.032 291.859 425.863 291.859Z" fill="white"/>
<path d="M438.993 241.992C438.993 241.992 442.363 252.916 432.419 257.51L431.147 259.934L437.376 266.634C437.376 266.634 445.056 251.361 444.224 245.938C444.224 245.938 443.035 240.43 438.993 241.992Z" fill="white"/>
<path d="M427.699 291.859C436.215 291.859 443.118 284.334 443.118 275.051C443.118 265.768 436.215 258.243 427.699 258.243C419.184 258.243 412.28 265.768 412.28 275.051C412.28 284.334 419.184 291.859 427.699 291.859Z" fill="#9893DA"/>
<path d="M444.301 248.42L441.852 244.013L438.286 243.463C439.047 228.955 435.593 224.633 435.593 224.633L434.791 224.549L431.295 224.179L424.721 216.741V214.628C433.958 215.827 439.064 220.609 441.822 226.214C446.697 236.05 444.301 248.42 444.301 248.42Z" fill="#9893DA"/>
<path opacity="0.1" d="M434.82 221.879V224.549L431.325 224.179L424.751 216.741C424.751 216.741 434.921 219.222 434.82 221.879Z" fill="black" stroke="#4C4981" stroke-miterlimit="10"/>
<path opacity="0.1" d="M444.301 248.42L441.852 244.013V226.24C446.696 236.05 444.301 248.42 444.301 248.42Z" fill="black" stroke="#4C4981" stroke-miterlimit="10"/>
<path d="M399.207 281.96C403.31 279.378 403.133 270.673 398.813 262.516C394.493 254.359 387.665 249.839 383.563 252.421C379.46 255.003 379.637 263.709 383.957 271.866C388.277 280.023 395.105 284.542 399.207 281.96Z" fill="white"/>
<path d="M393.699 265.766C398.021 273.923 403.323 279.373 399.221 281.965C395.12 284.556 383.172 283.261 378.851 275.096C374.53 266.932 378.453 255.657 382.554 253.065C386.656 250.474 389.372 257.588 393.699 265.766Z" fill="#9893DA"/>
<path opacity="0.1" d="M432.175 206.995C432.175 233.063 415.811 258.184 391.898 258.184C380.414 258.184 369.4 253.211 361.279 244.359C353.158 235.506 348.596 223.5 348.596 210.98C348.596 198.461 353.158 186.454 361.279 177.602C369.4 168.75 380.414 163.776 391.898 163.776C415.811 163.802 432.175 180.921 432.175 206.995Z" fill="black"/>
<path d="M391.898 256.914C415.814 256.914 435.201 235.78 435.201 209.71C435.201 183.64 415.814 162.506 391.898 162.506C367.983 162.506 348.596 183.64 348.596 209.71C348.596 235.78 367.983 256.914 391.898 256.914Z" fill="#AE6E79"/>
<path d="M388.094 188.794C393.248 190.861 396.297 196.667 400.921 199.9C407.46 204.436 415.972 203.263 423.437 201.021C427.598 199.784 431.949 198.274 436.045 199.647C436.647 199.938 437.312 200.041 437.965 199.946C438.856 199.667 439.296 198.591 439.587 197.632C444.652 181.174 442.375 162.532 434.731 147.305C432.758 143.378 430.392 139.581 427.135 136.853C424.567 134.709 421.547 133.303 418.504 132.104C412.942 129.926 407.19 128.378 401.337 127.484C400.304 127.279 399.248 127.242 398.205 127.374C396.772 127.626 395.488 128.469 394.21 129.22C388.737 132.419 382.667 134.216 376.462 134.475C368.14 134.819 358.629 132.681 352.216 138.499C344.488 145.478 346.414 159.091 341.404 168.565C338.087 174.83 331.691 179.379 330.639 186.513C330.365 188.694 330.492 190.912 331.013 193.038C333.462 204.015 343.21 212.516 353.601 212.717C355.196 212.85 356.794 212.493 358.213 211.687C359.143 210.995 359.964 210.144 360.644 209.166C367.45 200.38 375.237 183.636 388.094 188.794Z" fill="#444053"/>
<path opacity="0.1" d="M439.587 192.857C439.296 193.816 438.856 194.891 437.965 195.17C437.312 195.266 436.647 195.163 436.045 194.872C431.949 193.498 427.574 195.008 423.443 196.246C415.972 198.488 407.442 199.686 400.927 195.125C396.297 191.885 393.253 186.053 388.094 184.019C375.237 178.835 367.45 195.604 360.627 204.391C359.946 205.368 359.125 206.219 358.195 206.911C356.776 207.717 355.178 208.074 353.583 207.941C343.228 207.741 333.474 199.239 330.995 188.263C330.859 187.615 330.74 186.967 330.651 186.319C330.651 186.377 330.651 186.429 330.621 186.487C330.347 188.668 330.474 190.886 330.995 193.012C333.444 203.989 343.199 212.49 353.583 212.691C355.178 212.824 356.776 212.467 358.195 211.661C359.125 210.969 359.946 210.118 360.627 209.14C367.45 200.354 375.237 183.61 388.094 188.768C393.253 190.835 396.297 196.641 400.927 199.874C407.466 204.41 415.972 203.237 423.443 200.995C427.604 199.758 431.949 198.248 436.045 199.622C436.647 199.912 437.312 200.015 437.965 199.92C438.856 199.641 439.296 198.565 439.587 197.606C441.63 190.872 442.532 183.789 442.25 176.703C442.075 182.199 441.179 187.639 439.587 192.857Z" fill="black"/>
</g>
<defs>
<clipPath id="clip0">
<rect width="680" height="400" fill="white"/>
</clipPath>
</defs>
</svg>
